#!OML:ASF F:\VICON\USERDATA\INSTALL\rory3\rory3.ASF
:FULLY-SPECIFIED
:DEGREES
338
root -9.38898 14.6805 10.8845 21.6585 28.444 11.3664
lowerback 31.0622 1.82606 -0.99308
upperback 7.17023 2.39844 1.62463
thorax -9.02385 1.23758 1.49938
lowerneck -16.6846 -10.9438 -6.99786
upperneck 3.11242 -13.8649 8.08054
head 4.62157 -6.50231 2.29319
rclavicle 1.04958e-013 -6.36111e-015
rhumerus -10.7338 -32.3412 -54.0102
rradius 69.8257
rwrist 29.1434
rhand -34.0068 -9.94713
rfingers 7.12502
rthumb -7.18612 -39.8051
lclavicle 1.04958e-013 -6.36111e-015
lhumerus -44.1301 29.5111 55.4136
lradius 63.1776
lwrist -3.83182
lhand -30.0244 43.1242
lfingers 7.12502
lthumb -3.341 73.0778
rfemur -77.3976 -16.9978 16.9548
rtibia 87.6473
rfoot -12.9282 -0.503187
rtoes 2.52925
lfemur -26.0115 -22.6587 -7.03392
ltibia 63.0818
lfoot -21.2214 -15.3948
ltoes -36.9451
339
root -9.392 14.7014 10.9627 21.8593 28.2693 11.5812
lowerback 30.7719 1.81145 -1.09349
upperback 7.22257 2.34882 1.61366
thorax -8.82649 1.21589 1.56997
lowerneck -17.1341 -10.9252 -6.94582
upperneck 3.31854 -13.8016 7.74568
head 4.719 -6.47487 2.1673
rclavicle 5.725e-014 6.67916e-014
rhumerus -10.9186 -32.4834 -53.9517
rradius 70.0759
rwrist 28.9263
rhand -33.8815 -10.2111
rfingers 7.12502
rthumb -7.06517 -40.0732
lclavicle 5.725e-014 6.67916e-014
lhumerus -43.8941 29.4425 55.3792
lradius 63.2518
lwrist -3.70007
lhand -30.1507 43.1726
lfingers 7.12502
lthumb -3.46297 73.1242
rfemur -77.2889 -16.9529 16.9425
rtibia 87.6744
rfoot -13.0837 -0.67755
rtoes 2.84438
lfemur -25.5023 -22.7685 -7.31842
ltibia 62.4603
lfoot -20.8756 -15.1826
ltoes -37.1811
340
root -9.39268 14.7262 11.0385 21.9922 28.2576 11.7246
lowerback 30.5471 1.68159 -0.993153
upperback 7.27225 2.21507 1.59326
thorax -8.65283 1.15183 1.54313
lowerneck -17.2601 -11.0258 -7.19235
upperneck 3.0481 -13.8902 8.06564
head 4.70168 -6.50412 2.28957
rclavicle 5.24792e-014 -4.45278e-014
rhumerus -10.9913 -32.5453 -54.0076
rradius 70.1308
rwrist 28.7593
rhand -34.0149 -10.2208
rfingers 7.12502
rthumb -7.19392 -40.0785
lclavicle 5.24792e-014 -4.45278e-014
lhumerus -43.7343 29.2573 55.2413
lradius 63.4768
lwrist -3.48281
lhand -29.8334 43.2251
lfingers 7.12502
lthumb -3.15656 73.1815
rfemur -77.0555 -17.0536 17.0386
rtibia 87.6846
rfoot -13.4634 -0.936375
rtoes 2.8922
lfemur -25.0932 -23.0107 -7.50038
ltibia 61.8855
lfoot -20.2001 -15.1222
ltoes -36.8957
341
root -9.39784 14.7478 11.1024 22.1981 27.9878 11.8764
lowerback 30.4632 1.63944 -1.11308
upperback 7.15637 2.11273 1.50306
thorax -8.74117 1.1047 1.54896
lowerneck -17.2398 -10.9567 -7.21546
upperneck 2.87626 -13.7989 8.23328
head 4.65398 -6.45293 2.35948
rclavicle 0 -2.22639e-014
rhumerus -11.2877 -32.3836 -54.0517
rradius 70.2435
rwrist 28.5561
rhand -34.2933 -9.98761
rfingers 7.12502
rthumb -7.46263 -39.836
lclavicle 0 -2.22639e-014
lhumerus -43.8065 29.0655 54.9998
lradius 63.8035
lwrist -3.42434
lhand -29.5289 43.6853
lfingers 7.12502
lthumb -2.8625 73.6458
rfemur -76.9958 -16.8519 17.0299
rtibia 87.6745
rfoot -13.5931 -1.13928
rtoes 3.1101
lfemur -24.7496 -23.0286 -7.75556
ltibia 61.3654
lfoot -19.7618 -14.8242
ltoes -37.4279
342
root -9.40709 14.7637 11.1607 22.3682 27.5607 11.9129
lowerback 30.4882 1.65758 -1.21176
upperback 6.95371 2.08385 1.36732
thorax -8.98133 1.09068 1.46128
lowerneck -16.8988 -10.8303 -7.11589
upperneck 2.66604 -13.6683 8.32653
head 4.52892 -6.39499 2.40912
rclavicle -1.59028e-014 -1.74931e-014
rhumerus -11.7832 -32.3731 -54.1456
rradius 70.5222
rwrist 28.7002
rhand -34.5895 -9.55973
rfingers 7.12502
rthumb -7.74854 -39.3978
lclavicle -1.59028e-014 -1.74931e-014
lhumerus -43.8803 28.8159 54.7117
lradius 64.0919
lwrist -3.29665
lhand -29.6382 44.0624
lfingers 7.12502
lthumb -2.96804 74.0215
rfemur -77.0483 -16.4421 17.0831
rtibia 87.6427
rfoot -13.6302 -1.28687
rtoes 3.27858
lfemur -24.4239 -22.8652 -7.9451
ltibia 60.9224
lfoot -19.3932 -14.4446
ltoes -38.4762
